<svg xmlns="http://www.w3.org/2000/svg" viewBox="0 0 64 64" role="img" aria-label="CA India">
  <rect width="64" height="64" rx="12" fill="#ffffff"/>
  <path d="M28.5 9.5C15.7 9.5 7 17.8 7 31.6S15.7 54 28.5 54c4.1 0 7.2-.8 9.6-2.1l-2.7-7.3c-1.7.8-3.7 1.2-6.3 1.2-7.6 0-12.8-5.3-12.8-14.2 0-8.8 5.2-13.9 12.8-13.9 2.7 0 4.8.4 6.4 1.2l2.6-7.3c-2.4-1.4-5.5-2.1-9.6-2.1Z" fill="#17639a"/>
  <path d="M40 9.5 27.5 54h9l2.2-8.6h12.1L53 54h9L49.5 9.5H40Zm.7 28 4-16.2 4.1 16.2h-8.1Z" fill="#17639a"/>
  <path d="M27.2 31.2c9.6-.5 18.8-2.5 29-6.6-8.7 6.2-18 10.4-27 12.3Z" fill="#f47920"/>
  <path d="M31.2 36.9c8.7-1.5 17.2-4.9 26-9.7-7.2 6.5-15.4 11.6-24.1 14.8Z" fill="#50b848"/>
</svg>
